<?xml version="1.0" encoding="utf-8"?>
<!-- Generator: Adobe Illustrator 19.2.1, SVG Export Plug-In . SVG Version: 6.00 Build 0)  -->
<svg version="1.1" id="Calque_1" xmlns="http://www.w3.org/2000/svg" xmlns:xlink="http://www.w3.org/1999/xlink" x="0px" y="0px"
	 viewBox="0 0 200 120" style="enable-background:new 0 0 200 120;" xml:space="preserve">
<style type="text/css">
	.st0{fill:#846B82;}
	.st1{fill:#C7C5EA;}
	.st2{fill:#FFFFFF;}
</style>
<circle class="st0" cx="61.9" cy="60" r="49"/>
<circle class="st1" cx="138.1" cy="60" r="49"/>
<path class="st2" d="M37.6,61.7c0.7,0.1,1.4,0.4,2.1,0.6c0.6,0.3,1.2,0.7,1.6,1.2s0.8,1,1.1,1.5c0.3,0.6,0.4,1.2,0.4,1.9
	c0,0.7-0.2,1.4-0.5,2.1c-0.4,0.6-0.8,1.2-1.4,1.7c-0.5,0.5-1.3,0.8-2,1.1c-0.8,0.3-1.6,0.5-2.4,0.5h-2.1c-0.9,0-1.7-0.2-2.4-0.5
	c-0.8-0.3-1.4-0.6-2-1.1c-0.5-0.5-1-1-1.4-1.7c-0.4-0.6-0.5-1.4-0.5-2.1v-0.1h0.6v0.1c0,0.6,0.2,1.3,0.5,1.8s0.7,1.1,1.3,1.5
	c0.5,0.5,1.1,0.8,1.8,1c0.7,0.3,1.4,0.4,2.2,0.4h1.9c0.8,0,1.5-0.1,2.3-0.4c0.7-0.3,1.3-0.6,1.8-1c0.5-0.5,0.9-0.9,1.2-1.5
	c0.3-0.5,0.5-1.2,0.5-1.8s-0.2-1.3-0.5-1.8S41,64,40.5,63.6c-0.5-0.5-1.1-0.8-1.8-1s-1.4-0.4-2.3-0.4s-1.4,0-2.1,0
	c-0.5-0.1-1-0.2-1.4-0.3s-0.7-0.2-1-0.4c-1-0.6-1.8-1.3-2.3-2C29,58.9,28.7,58,28.7,57c0-0.7,0.2-1.4,0.5-2.1
	c0.4-0.6,0.8-1.2,1.4-1.7c0.5-0.5,1.3-0.9,2-1.2c0.8-0.3,1.6-0.5,2.4-0.5h0.5c0.8,0,1.6,0.1,2.3,0.4s1.4,0.6,2,1.1
	c0.5,0.5,1,1,1.4,1.6s0.5,1.3,0.6,2h-0.6c0-0.6-0.2-1.2-0.5-1.7c-0.4-0.5-0.7-1-1.3-1.4c-0.5-0.5-1.1-0.7-1.8-1
	c-0.6-0.3-1.4-0.4-2.2-0.4H35c-0.8,0-1.5,0.1-2.2,0.4c-0.7,0.3-1.3,0.6-1.8,1c-0.5,0.5-0.9,0.9-1.3,1.5c-0.4,0.6-0.5,1.2-0.5,1.8
	s0.2,1.3,0.5,1.8s0.7,1.1,1.3,1.5c0.5,0.5,1.1,0.8,1.8,1c0.7,0.3,1.4,0.4,2.2,0.4h0.9c0.3,0,0.5,0,0.8,0
	C37.1,61.6,37.4,61.7,37.6,61.7z"/>
<polygon class="st2" points="53.8,61.9 53.8,72.1 53.3,72.1 53.3,61.9 45.7,51.4 46.4,51.4 53.6,61.2 60.8,51.4 61.5,51.4 "/>
<polygon class="st2" points="80.7,51.6 80.7,72.2 80.2,72.2 64.8,52.6 64.8,72.2 64.3,72.2 64.3,51.6 64.8,51.6 80.2,71.2 
	80.2,51.6 "/>
<polygon class="st0" points="96.6,52.5 103.8,52.5 103.8,72.7 104.6,72.7 104.6,52.5 111.9,52.5 111.9,51.6 96.6,51.6 "/>
<polygon class="st0" points="130.2,61.7 115.3,61.7 115.3,51.6 114.5,51.6 114.5,72.8 115.3,72.6 115.3,62.6 130.2,62.6 130.2,72.7 
	131.1,72.7 131.1,51.6 130.2,51.6 "/>
<polygon class="st0" points="140.1,50.5 140.8,50.5 138,47.7 136.9,47.7 140,50.4 "/>
<polygon class="st0" points="133.7,72.7 147,72.7 147,71.8 134.5,71.8 134.5,62.6 143.7,62.6 143.7,61.7 134.5,61.7 134.5,52.5 
	147,52.5 147,51.6 133.7,51.6 "/>
<path class="st0" d="M161.2,63.6c-0.5-0.5-1-0.9-1.7-1.2c-0.6-0.3-1.3-0.5-2.1-0.7c-0.2,0-0.5-0.1-0.8-0.1c-0.3,0-0.6,0-0.8,0H155
	c-0.8,0-1.5-0.1-2.2-0.4c-0.7-0.2-1.3-0.6-1.8-1c-0.5-0.4-0.9-0.9-1.2-1.5c-0.3-0.5-0.4-1.1-0.4-1.8c0-0.6,0.1-1.2,0.4-1.8
	c0.3-0.6,0.7-1.1,1.2-1.5c0.5-0.4,1.1-0.8,1.8-1c0.7-0.2,1.4-0.4,2.2-0.4h0.6c0.7,0,1.4,0.1,2.1,0.3c0.7,0.2,1.2,0.5,1.7,0.9
	c0.5,0.4,0.9,0.9,1.2,1.4c0.3,0.5,0.5,1.1,0.5,1.7l0,0.1h1l0-0.2c0-0.7-0.2-1.4-0.6-2c-0.4-0.6-0.8-1.2-1.4-1.7
	c-0.6-0.5-1.3-0.8-2-1.1c-0.8-0.3-1.6-0.4-2.5-0.4H155c-0.9,0-1.7,0.1-2.5,0.4c-0.8,0.3-1.5,0.7-2.1,1.2c-0.6,0.5-1.1,1.1-1.4,1.7
	c-0.3,0.7-0.5,1.4-0.5,2.1c0,1,0.3,2,0.9,2.7c0.6,0.8,1.4,1.5,2.4,2.1c0.3,0.1,0.6,0.3,1,0.4c0.4,0.1,0.8,0.2,1.4,0.2
	c0.6,0.1,1.2,0.1,2.1,0c0.8,0,1.5,0.1,2.2,0.4c0.7,0.2,1.3,0.6,1.8,1c0.5,0.4,0.9,0.9,1.2,1.5c0.3,0.6,0.4,1.2,0.4,1.8
	s-0.1,1.2-0.4,1.8c-0.3,0.6-0.7,1-1.2,1.5c-0.5,0.4-1.1,0.8-1.8,1c-0.7,0.2-1.4,0.4-2.2,0.4h-1.9c-0.8,0-1.5-0.1-2.2-0.4
	s-1.3-0.6-1.8-1c-0.5-0.4-0.9-0.9-1.2-1.5c-0.3-0.5-0.4-1.1-0.4-1.8v-0.3h-1v0.3c0,0.8,0.2,1.5,0.5,2.1c0.3,0.7,0.8,1.2,1.4,1.7
	c0.6,0.5,1.3,0.9,2.1,1.2c0.8,0.3,1.6,0.4,2.5,0.4h1.9c0.9,0,1.8-0.1,2.5-0.4c0.8-0.3,1.5-0.7,2.1-1.2c0.6-0.5,1.1-1.1,1.4-1.7
	c0.3-0.7,0.5-1.4,0.5-2.1c0-0.7-0.1-1.3-0.4-1.9C162.1,64.7,161.7,64.1,161.2,63.6z"/>
<polygon class="st0" points="178.7,52.5 178.7,51.6 165.4,51.6 165.4,72.7 178.7,72.7 178.7,71.8 166.2,71.8 166.2,62.6 175.4,62.6 
	175.4,61.7 166.2,61.7 166.2,52.5 "/>
</svg>
